<svg width="24" height="24" viewBox="0 0 24 24" fill="none" xmlns="http://www.w3.org/2000/svg">
<circle cx="12" cy="12" r="11.5" stroke="white"/>
<path d="M14.1982 14.6602C14.1982 14.1621 14.04 13.752 13.7236 13.4297C13.4072 13.1016 12.8799 12.8086 12.1416 12.5508C11.4033 12.2871 10.8291 12.0439 10.4189 11.8213C9.05371 11.0889 8.37109 10.0049 8.37109 8.56934C8.37109 7.59668 8.66699 6.79687 9.25879 6.16992C9.85059 5.54297 10.6533 5.1709 11.667 5.05371V3.1377H13.0732V5.07129C14.0928 5.21777 14.8809 5.65137 15.4375 6.37207C15.9941 7.08691 16.2725 8.01855 16.2725 9.16699H14.1455C14.1455 8.42871 13.9785 7.84863 13.6445 7.42676C13.3164 6.99902 12.8682 6.78516 12.2998 6.78516C11.7373 6.78516 11.2979 6.9375 10.9814 7.24219C10.665 7.54688 10.5068 7.9834 10.5068 8.55176C10.5068 9.06152 10.6621 9.47168 10.9727 9.78223C11.2891 10.0869 11.8223 10.377 12.5723 10.6523C13.3223 10.9277 13.9111 11.1826 14.3389 11.417C14.7666 11.6514 15.127 11.9209 15.4199 12.2256C15.7129 12.5244 15.9385 12.8701 16.0967 13.2627C16.2549 13.6553 16.334 14.1152 16.334 14.6426C16.334 15.6328 16.0293 16.4355 15.4199 17.0508C14.8164 17.666 13.9727 18.0293 12.8887 18.1406V19.8545H11.4912V18.1494C10.3311 18.0205 9.4375 17.6045 8.81055 16.9014C8.18945 16.1982 7.87891 15.2666 7.87891 14.1064H10.0146C10.0146 14.8447 10.1992 15.416 10.5684 15.8203C10.9434 16.2246 11.4707 16.4268 12.1504 16.4268C12.8184 16.4268 13.3252 16.2656 13.6709 15.9434C14.0225 15.6211 14.1982 15.1934 14.1982 14.6602Z" fill="white"/>
</svg>
