<svg width="67" height="94" viewBox="0 0 67 94" fill="none" xmlns="http://www.w3.org/2000/svg">
<path d="M33.0662 0C14.8332 0 0 14.835 0 33.0703C0 50.7103 30.2303 90.9006 31.5181 92.6047C31.8799 93.091 32.4596 93.375 33.0664 93.375C33.6733 93.375 34.253 93.091 34.6148 92.6047C35.9024 90.9006 66.1329 50.7105 66.1329 33.0703C66.1325 14.835 51.2993 0 33.0662 0ZM32.7505 54.8711C20.2505 54.8711 11.2505 45.3711 11.2505 33.0703C11.2505 19.8711 21.2505 12.8711 32.7505 12.8711C44.7505 12.8711 54.2505 22.3711 54.2505 34.3711C54.2505 45.8711 45.2505 54.8711 32.7505 54.8711Z" fill="url(#paint0_linear)"/>
<defs>
<linearGradient id="paint0_linear" x1="-12.3482" y1="-4.90899e-07" x2="82.4112" y2="20.3728" gradientUnits="userSpaceOnUse">
<stop stop-color="#4BD8B5"/>
<stop offset="1" stop-color="#49D6DF"/>
</linearGradient>
</defs>
</svg>
